# xmcd
#
# Track frame offsets: 
#        150
#        18054
#        36531
#        53050
#        78723
#        97774
#        116680
#        136093
#        163298
#        180043
#        197763
#        216159
#        232377
#        250125
#        268988
#        283485
#        311150
#        326604
#
# Disc length: 4702 seconds
#
# Revision: 1
# Processed by: cddbd v1.5.2PL0 Copyright (c) Steve Scherf et al.
# Submitted via: ExactAudioCopy v0.99pb3
#
DISCID=0c125c12
DTITLE=Tina Turner - 2004-Open Arms
DYEAR=2004
DGENRE=R&B
TTITLE0=Open Arms
TTITLE1=The Best
TTITLE2=I Can't Stand The Rain
TTITLE3=Whatever You Want
TTITLE4=Be Tender With Me Baby
TTITLE5=I Don't Wanna Lose You
TTITLE6=Way Of The World
TTITLE7=I Don't Wanna Fight
TTITLE8=What's Love Got To Do With It
TTITLE9=Steamy Windows
TTITLE10=It Takes Two
TTITLE11=Nutbush City Limits
TTITLE12=Private Dancer
TTITLE13=We Don't Need Another Hero
TTITLE14=It's Only Love
TTITLE15=On Silent Wings
TTITLE16=Goldeneye
TTITLE17=Why Must We Walt Untill Tonight
EXTD=
EXTT0=
EXTT1=
EXTT2=
EXTT3=
EXTT4=
EXTT5=
EXTT6=
EXTT7=
EXTT8=
EXTT9=
EXTT10=
EXTT11=
EXTT12=
EXTT13=
EXTT14=
EXTT15=
EXTT16=
EXTT17=
PLAYORDER=
